HIERARCHY
ROOT Hips
{
	OFFSET 0.000000 0.000000 0.000000
	CHANNELS 6 Xposition Yposition Zposition Xrotation Yrotation Zrotation
	JOINT Thigh.L
	{
		OFFSET 0.054921 0.026568 -0.094033
		CHANNELS 3 Xrotation Yrotation Zrotation
		JOINT Shin.L
		{
			OFFSET 0.060888 0.005735 -0.413206
			CHANNELS 3 Xrotation Yrotation Zrotation
			JOINT Foot.L
			{
				OFFSET -0.041993 0.031335 -0.439707
				CHANNELS 3 Xrotation Yrotation Zrotation
				JOINT Toe.L
				{
					OFFSET 0.048267 -0.127314 -0.064793
					CHANNELS 3 Xrotation Yrotation Zrotation
					End Site
					{
						OFFSET 0.000000 0.050000 0.000000
					}
				}
			}
		}
	}
	JOINT Thigh.R
	{
		OFFSET -0.060025 0.020721 -0.106758
		CHANNELS 3 Xrotation Yrotation Zrotation
		JOINT Shin.R
		{
			OFFSET -0.049842 0.013868 -0.394412
			CHANNELS 3 Xrotation Yrotation Zrotation
			JOINT Foot.R
			{
				OFFSET 0.013929 0.019497 -0.448847
				CHANNELS 3 Xrotation Yrotation Zrotation
				JOINT Toe.R
				{
					OFFSET -0.039723 -0.128179 -0.064607
					CHANNELS 3 Xrotation Yrotation Zrotation
					End Site
					{
						OFFSET 0.000000 0.050000 0.000000
					}
				}
			}
		}
	}
	JOINT Spine
	{
		OFFSET -0.002631 0.028449 0.113155
		CHANNELS 3 Xrotation Yrotation Zrotation
		JOINT Spine.2
		{
			OFFSET 0.008964 0.007364 0.139448
			CHANNELS 3 Xrotation Yrotation Zrotation
			JOINT Chest
			{
				OFFSET -0.010750 -0.022451 0.056060
				CHANNELS 3 Xrotation Yrotation Zrotation
				JOINT Neck
				{
					OFFSET -0.012166 0.025834 0.170013
					CHANNELS 3 Xrotation Yrotation Zrotation
					JOINT Head
					{
						OFFSET 0.025412 -0.021189 0.171103
						CHANNELS 3 Xrotation Yrotation Zrotation
						End Site
						{
							OFFSET 0.000000 0.050000 0.000000
						}
					}
				}
				JOINT Clavicle.L
				{
					OFFSET 0.047383 0.004884 0.087402
					CHANNELS 3 Xrotation Yrotation Zrotation
					JOINT UpperArm.L
					{
						OFFSET 0.127888 0.013589 0.057601
						CHANNELS 3 Xrotation Yrotation Zrotation
						JOINT ForeArm.L
						{
							OFFSET 0.271764 0.043223 -0.075902
							CHANNELS 3 Xrotation Yrotation Zrotation
							JOINT Hand.L
							{
								OFFSET 0.276683 0.000639 0.022053
								CHANNELS 3 Xrotation Yrotation Zrotation
								JOINT Thumb1.L
								{
									OFFSET 0.154620 0.000276 0.009534
									CHANNELS 3 Xrotation Yrotation Zrotation
									JOINT Thumb2.L
									{
										OFFSET 0.029905 0.000069 0.002384
										CHANNELS 3 Xrotation Yrotation Zrotation
										End Site
										{
											OFFSET 0.024921 0.000058 0.001986
										}
									}
								}
								JOINT Index1.L
								{
									OFFSET 0.137620 0.000276 0.009534
									CHANNELS 3 Xrotation Yrotation Zrotation
									JOINT Index2.L
									{
										OFFSET 0.029905 0.000069 0.002384
										CHANNELS 3 Xrotation Yrotation Zrotation
										JOINT Index3.L
										{
											OFFSET 0.021930 0.000051 0.001748
											CHANNELS 3 Xrotation Yrotation Zrotation
											End Site
											{
												OFFSET 0.017943 0.000041 0.001430
											}
										}
									}
								}
								JOINT Middle1.L
								{
									OFFSET 0.119620 0.000276 0.009534
									CHANNELS 3 Xrotation Yrotation Zrotation
									JOINT Middle2.L
									{
										OFFSET 0.030902 0.000071 0.002463
										CHANNELS 3 Xrotation Yrotation Zrotation
										JOINT Middle3.L
										{
											OFFSET 0.021930 0.000051 0.001748
											CHANNELS 3 Xrotation Yrotation Zrotation
											End Site
											{
												OFFSET 0.017943 0.000041 0.001430
											}
										}
									}
								}
								JOINT Ring1.L
								{
									OFFSET 0.101620 0.000276 0.009534
									CHANNELS 3 Xrotation Yrotation Zrotation
									JOINT Ring2.L
									{
										OFFSET 0.028908 0.000067 0.002304
										CHANNELS 3 Xrotation Yrotation Zrotation
										JOINT Ring3.L
										{
											OFFSET 0.019937 0.000046 0.001589
											CHANNELS 3 Xrotation Yrotation Zrotation
											End Site
											{
												OFFSET 0.016946 0.000039 0.001351
											}
										}
									}
								}
								JOINT Pinky1.L
								{
									OFFSET 0.085620 0.000276 0.009534
									CHANNELS 3 Xrotation Yrotation Zrotation
									JOINT Pinky2.L
									{
										OFFSET 0.023924 0.000055 0.001907
										CHANNELS 3 Xrotation Yrotation Zrotation
										JOINT Pinky3.L
										{
											OFFSET 0.016946 0.000039 0.001351
											CHANNELS 3 Xrotation Yrotation Zrotation
											End Site
											{
												OFFSET 0.013956 0.000032 0.001112
											}
										}
									}
								}
							}
						}
					}
				}
				JOINT Clavicle.R
				{
					OFFSET -0.048299 0.011007 0.086452
					CHANNELS 3 Xrotation Yrotation Zrotation
					JOINT UpperArm.R
					{
						OFFSET -0.110996 0.009795 0.053967
						CHANNELS 3 Xrotation Yrotation Zrotation
						JOINT ForeArm.R
						{
							OFFSET -0.290289 0.028085 -0.040348
							CHANNELS 3 Xrotation Yrotation Zrotation
							JOINT Hand.R
							{
								OFFSET -0.272837 0.014284 -0.005656
								CHANNELS 3 Xrotation Yrotation Zrotation
								JOINT Thumb1.R
								{
									OFFSET -0.154810 0.006273 -0.002484
									CHANNELS 3 Xrotation Yrotation Zrotation
									JOINT Thumb2.R
									{
										OFFSET -0.029953 0.001568 -0.000621
										CHANNELS 3 Xrotation Yrotation Zrotation
										End Site
										{
											OFFSET -0.024960 0.001307 -0.000517
										}
									}
								}
								JOINT Index1.R
								{
									OFFSET -0.137810 0.006273 -0.002484
									CHANNELS 3 Xrotation Yrotation Zrotation
									JOINT Index2.R
									{
										OFFSET -0.029953 0.001568 -0.000621
										CHANNELS 3 Xrotation Yrotation Zrotation
										JOINT Index3.R
										{
											OFFSET -0.021965 0.001150 -0.000455
											CHANNELS 3 Xrotation Yrotation Zrotation
											End Site
											{
												OFFSET -0.017972 0.000941 -0.000373
											}
										}
									}
								}
								JOINT Middle1.R
								{
									OFFSET -0.119810 0.006273 -0.002484
									CHANNELS 3 Xrotation Yrotation Zrotation
									JOINT Middle2.R
									{
										OFFSET -0.030951 0.001620 -0.000642
										CHANNELS 3 Xrotation Yrotation Zrotation
										JOINT Middle3.R
										{
											OFFSET -0.021965 0.001150 -0.000455
											CHANNELS 3 Xrotation Yrotation Zrotation
											End Site
											{
												OFFSET -0.017972 0.000941 -0.000373
											}
										}
									}
								}
								JOINT Ring1.R
								{
									OFFSET -0.101810 0.006273 -0.002484
									CHANNELS 3 Xrotation Yrotation Zrotation
									JOINT Ring2.R
									{
										OFFSET -0.028954 0.001516 -0.000600
										CHANNELS 3 Xrotation Yrotation Zrotation
										JOINT Ring3.R
										{
											OFFSET -0.019968 0.001045 -0.000414
											CHANNELS 3 Xrotation Yrotation Zrotation
											End Site
											{
												OFFSET -0.016973 0.000889 -0.000352
											}
										}
									}
								}
								JOINT Pinky1.R
								{
									OFFSET -0.085810 0.006273 -0.002484
									CHANNELS 3 Xrotation Yrotation Zrotation
									JOINT Pinky2.R
									{
										OFFSET -0.023962 0.001255 -0.000497
										CHANNELS 3 Xrotation Yrotation Zrotation
										JOINT Pinky3.R
										{
											OFFSET -0.016973 0.000889 -0.000352
											CHANNELS 3 Xrotation Yrotation Zrotation
											End Site
											{
												OFFSET -0.013978 0.000732 -0.000290
											}
										}
									}
								}
							}
						}
					}
				}
			}
		}
	}
}
MOTION
Frames: 4
Frame Time: 0.04166667
-0.112579 -0.078638 1.067414 -3.655429 2.790532 0.793922 -6.211110 -10.222628 6.012019 32.604693 5.457768 -4.736695 -18.036938 -6.326024 15.333838 0.309217 2.078121 -1.349117 -30.087599 3.806773 -2.391653 43.240080 -11.295940 -7.335775 -1.335631 -1.870585 -10.531893 -2.792047 -3.132285 0.757243 25.010573 1.240342 -5.670194 -6.046304 -3.608255 -2.389772 8.455183 -2.149272 -3.705372 16.664351 5.648585 4.688012 -10.424710 -2.311260 1.557929 -6.036515 0.122439 -3.883286 -12.875634 15.523425 -18.002605 -28.497493 -11.170273 -94.190859 -6.925162 -26.865912 -17.092353 0.000000 0.000000 0.000000 0.000000 0.000000 0.000000 0.000000 0.000000 0.000000 0.000000 0.000000 0.000000 0.000000 0.000000 0.000000 0.000000 0.000000 0.000000 0.000000 0.000000 0.000000 0.000000 0.000000 0.000000 0.000000 0.000000 0.000000 0.000000 0.000000 0.000000 0.000000 0.000000 0.000000 0.000000 0.000000 0.000000 0.000000 0.000000 0.000000 0.000000 0.000000 0.000000 -1.194065 -8.298378 -0.400600 -0.899440 -38.130233 -8.586971 -17.398657 8.020461 60.251889 -17.362448 22.430763 13.350634 0.000000 0.000000 0.000000 0.000000 0.000000 0.000000 0.000000 0.000000 0.000000 0.000000 0.000000 0.000000 0.000000 0.000000 0.000000 0.000000 0.000000 0.000000 0.000000 0.000000 0.000000 0.000000 0.000000 0.000000 0.000000 0.000000 0.000000 0.000000 0.000000 0.000000 0.000000 0.000000 0.000000 0.000000 0.000000 0.000000 0.000000 0.000000 0.000000 0.000000 0.000000 0.000000
-0.103989 -0.062001 1.063865 -2.650818 1.684935 -2.009564 -4.984649 -10.616905 7.696037 33.041183 6.778746 -3.556430 -17.670595 -6.434232 14.246716 0.350612 2.514938 -1.184787 -31.900080 5.822261 -1.682333 47.207928 -12.014594 -6.048210 0.511589 -2.275118 -9.167773 -3.177335 -3.416549 0.784296 24.436577 -0.105445 -6.366240 -6.048929 -3.658411 -2.849356 8.894412 -1.694802 -4.345482 15.069059 6.370790 4.804719 -11.596737 -0.879445 2.620570 -4.670929 1.304028 -3.894750 -9.794214 14.857985 -15.668988 -22.906849 -11.525316 -90.962332 -8.038266 -21.616660 -17.694626 0.000000 0.000000 0.000000 0.000000 0.000000 0.000000 0.000000 0.000000 0.000000 0.000000 0.000000 0.000000 0.000000 0.000000 0.000000 0.000000 0.000000 0.000000 0.000000 0.000000 0.000000 0.000000 0.000000 0.000000 0.000000 0.000000 0.000000 0.000000 0.000000 0.000000 0.000000 0.000000 0.000000 0.000000 0.000000 0.000000 0.000000 0.000000 0.000000 0.000000 0.000000 0.000000 -2.459742 -7.469016 -0.707161 -4.560775 -32.777062 -9.387035 -23.022278 7.001676 66.976663 -19.667916 21.673984 14.373685 0.000000 0.000000 0.000000 0.000000 0.000000 0.000000 0.000000 0.000000 0.000000 0.000000 0.000000 0.000000 0.000000 0.000000 0.000000 0.000000 0.000000 0.000000 0.000000 0.000000 0.000000 0.000000 0.000000 0.000000 0.000000 0.000000 0.000000 0.000000 0.000000 0.000000 0.000000 0.000000 0.000000 0.000000 0.000000 0.000000 0.000000 0.000000 0.000000 0.000000 0.000000 0.000000
-0.095672 -0.052215 1.061123 -2.434849 1.028198 -4.266365 -4.636928 -12.135990 9.129501 34.923268 8.078228 -2.734631 -16.295279 -5.722918 14.339654 0.301380 2.291046 -1.119346 -33.408020 8.202479 -0.621893 51.939381 -12.243968 -4.093359 1.546809 -2.883137 -8.023302 -3.370149 -3.515933 0.763541 24.286118 -1.162059 -6.827941 -6.301783 -3.418508 -3.164942 9.277099 -1.391431 -4.561283 14.086990 7.227138 5.133961 -12.771086 -0.045495 3.826573 -3.750508 2.274746 -4.367987 -7.554675 15.073948 -14.182014 -17.751370 -12.168823 -87.698108 -8.346673 -19.334650 -18.553032 0.000000 0.000000 0.000000 0.000000 0.000000 0.000000 0.000000 0.000000 0.000000 0.000000 0.000000 0.000000 0.000000 0.000000 0.000000 0.000000 0.000000 0.000000 0.000000 0.000000 0.000000 0.000000 0.000000 0.000000 0.000000 0.000000 0.000000 0.000000 0.000000 0.000000 0.000000 0.000000 0.000000 0.000000 0.000000 0.000000 0.000000 0.000000 0.000000 0.000000 0.000000 0.000000 -3.224743 -6.514880 -0.259770 -7.902429 -28.422274 -9.422729 -26.325903 6.421091 71.507031 -19.247168 21.949098 15.358774 0.000000 0.000000 0.000000 0.000000 0.000000 0.000000 0.000000 0.000000 0.000000 0.000000 0.000000 0.000000 0.000000 0.000000 0.000000 0.000000 0.000000 0.000000 0.000000 0.000000 0.000000 0.000000 0.000000 0.000000 0.000000 0.000000 0.000000 0.000000 0.000000 0.000000 0.000000 0.000000 0.000000 0.000000 0.000000 0.000000 0.000000 0.000000 0.000000 0.000000 0.000000 0.000000
-0.083653 -0.047491 1.058469 -2.814018 0.119827 -6.489034 -4.722125 -14.237760 10.462952 36.846631 8.889425 -1.396176 -15.339040 -4.950616 14.456496 0.162053 1.866497 -0.987389 -33.693197 10.943117 0.194726 55.267918 -11.358140 -2.135909 0.643656 -2.291056 -8.266378 -3.534152 -3.430117 0.742898 24.105544 -2.159828 -7.068158 -6.480216 -2.918091 -3.328727 9.454983 -0.903769 -4.540315 13.188749 7.659521 5.311470 -13.128377 0.410020 4.932008 -2.947017 3.297970 -4.604285 -5.358266 15.526437 -12.597749 -11.836052 -13.001510 -85.050228 -7.888522 -17.270750 -18.888299 0.000000 0.000000 0.000000 0.000000 0.000000 0.000000 0.000000 0.000000 0.000000 0.000000 0.000000 0.000000 0.000000 0.000000 0.000000 0.000000 0.000000 0.000000 0.000000 0.000000 0.000000 0.000000 0.000000 0.000000 0.000000 0.000000 0.000000 0.000000 0.000000 0.000000 0.000000 0.000000 0.000000 0.000000 0.000000 0.000000 0.000000 0.000000 0.000000 0.000000 0.000000 0.000000 -3.879620 -5.539369 0.474684 -11.102800 -23.650823 -8.844708 -28.093768 5.984290 76.008910 -17.314431 22.419197 16.221164 0.000000 0.000000 0.000000 0.000000 0.000000 0.000000 0.000000 0.000000 0.000000 0.000000 0.000000 0.000000 0.000000 0.000000 0.000000 0.000000 0.000000 0.000000 0.000000 0.000000 0.000000 0.000000 0.000000 0.000000 0.000000 0.000000 0.000000 0.000000 0.000000 0.000000 0.000000 0.000000 0.000000 0.000000 0.000000 0.000000 0.000000 0.000000 0.000000 0.000000 0.000000 0.000000
